<?xml version="1.0" encoding="UTF-8"?>
<!DOCTYPE svg PUBLIC "-//W3C//DTD SVG 1.1//EN" "http://www.w3.org/Graphics/SVG/1.1/DTD/svg11.dtd">
<!-- Creator: CorelDRAW 2020 (64 Bit) -->
<svg xmlns="http://www.w3.org/2000/svg" xml:space="preserve" width="240mm" height="75mm" version="1.1" style="shape-rendering:geometricPrecision; text-rendering:geometricPrecision; image-rendering:optimizeQuality; fill-rule:evenodd; clip-rule:evenodd"
viewBox="0 0 24000 7500"
 xmlns:xlink="http://www.w3.org/1999/xlink"
 xmlns:xodm="http://www.corel.com/coreldraw/odm/2003">
 <defs>
  <style type="text/css">
   <![CDATA[
    .fil1 {fill:#FFCC29;fill-rule:nonzero}
    .fil0 {fill:#3C74B4;fill-rule:nonzero}
   ]]>
  </style>
 </defs>
 <g id="Camada_x0020_1">
  <metadata id="CorelCorpID_0Corel-Layer"/>
  <g id="_2971985609408">
   <g>
    <path class="fil0" d="M1848.37 3904.61c543.76,0 811.09,-279.47 811.09,-650.08 0,-756.4 -1163.47,-540.72 -1163.47,-859.69 0,-121.51 103.28,-200.49 285.55,-200.49 206.57,0 425.29,69.87 589.33,221.76l239.98 -322.01c-200.49,-185.3 -467.81,-282.51 -789.82,-282.51 -476.93,0 -768.55,279.47 -768.55,616.67 0,762.48 1166.5,516.42 1166.5,868.8 0,118.47 -112.4,224.79 -352.38,224.79 -279.48,0 -501.23,-127.58 -644.01,-276.43l-236.94 337.19c191.37,191.38 470.85,322 862.72,322zm2062.65 0c610.59,0 1057.14,-437.44 1057.14,-1048.03 0,-610.59 -446.55,-1048.03 -1057.14,-1048.03 -613.63,0 -1060.19,437.44 -1060.19,1048.03 0,610.59 446.56,1048.03 1060.19,1048.03zm0 -382.76c-376.69,0 -616.67,-288.58 -616.67,-665.27 0,-379.72 239.98,-665.27 616.67,-665.27 373.64,0 613.63,285.55 613.63,665.27 0,376.69 -239.99,665.27 -613.63,665.27zm2633.74 346.31l0 -379.72 -856.65 0 0 -1646.47 -434.4 0 0 2026.19 1291.05 0zm722.99 0l0 -2026.19 -431.37 0 0 2026.19 431.37 0zm1202.95 0c631.86,0 1072.34,-400.99 1072.34,-1014.62 0,-607.55 -440.48,-1011.57 -1075.37,-1011.57l-798.94 0 0 2026.19 801.97 0zm-3.03 -379.72l-367.57 0 0 -1266.75 370.6 0c413.14,0 631.86,276.44 631.86,631.85 0,346.31 -233.91,634.9 -634.89,634.9zm3168.39 379.72l-780.71 -2026.19 -540.72 0 -780.71 2026.19 489.08 0 127.59 -343.27 868.8 0 127.58 343.27 489.09 0zm-735.14 -722.99l-631.86 0 315.93 -871.84 315.93 871.84zm2566.91 722.99l-458.71 -771.59c218.72,-51.65 446.56,-246.06 446.56,-601.48 0,-376.69 -261.25,-653.12 -683.5,-653.12l-947.79 0 0 2026.19 431.37 0 0 -719.95 315.92 0 397.95 719.95 498.2 0zm-756.41 -1099.67l-455.66 0 0 -546.8 455.66 0c170.12,0 300.74,103.28 300.74,270.36 0,173.15 -130.62,276.44 -300.74,276.44zm1497.63 1099.67l0 -2026.19 -431.37 0 0 2026.19 431.37 0zm1871.26 0l0 -379.72 -978.16 0 956.9 -1300.17 0 -346.3 -1521.92 0 0 379.72 956.89 0 -956.89 1297.13 0 349.34 1543.18 0zm2217.58 0l-780.71 -2026.19 -540.72 0 -780.71 2026.19 489.08 0 127.59 -343.27 868.8 0 127.58 343.27 489.09 0zm-735.14 -722.99l-631.86 0 315.93 -871.84 315.93 871.84z"/>
    <path class="fil1" d="M19956.5 2978.09l589.33 177.71c-39.49,165.06 -101.76,303.27 -187.33,413.65 -85.06,110.87 -190.37,194.41 -316.94,250.61 -126.07,56.2 -286.56,84.55 -481.49,84.55 -236.94,0 -429.84,-34.42 -580.21,-102.77 -149.86,-68.86 -278.97,-189.87 -387.82,-362.51 -108.85,-172.65 -163.53,-394.41 -163.53,-663.75 0,-359.47 95.68,-635.91 287.06,-829.32 191.89,-192.89 462.76,-289.6 813.11,-289.6 273.91,0 489.59,55.19 646.54,166.07 156.45,110.88 273.4,280.99 349.35,510.85l-592.37 131.13c-20.76,-65.82 -42.53,-113.92 -65.31,-144.29 -37.97,-51.14 -84.05,-90.63 -138.22,-117.97 -54.68,-27.85 -115.43,-41.52 -182.77,-41.52 -152.9,0 -269.86,61.26 -350.86,183.28 -61.27,90.63 -92.15,233.4 -92.15,427.32 0,240.99 36.45,405.54 109.87,495.15 73.41,89.11 176.19,133.66 308.84,133.66 128.6,0 225.8,-35.94 291.62,-108.34 65.82,-71.9 113.41,-176.7 143.28,-313.91zm2007.46 103.29l0 -452.63 1038.92 0 0 925c-198.97,135.69 -374.66,228.34 -527.05,277.45 -152.9,49.11 -334.16,73.41 -543.76,73.41 -258.21,0 -468.83,-44.04 -631.35,-132.14 -162.52,-87.59 -288.59,-218.72 -378.2,-392.88 -89.62,-173.66 -134.17,-373.65 -134.17,-598.95 0,-237.45 49.11,-443.52 146.82,-619.2 97.72,-175.18 241,-308.33 429.85,-399.47 147.33,-70.37 345.8,-105.31 594.89,-105.31 239.99,0 419.72,21.77 538.7,65.32 119.49,43.54 218.22,110.87 296.69,202.51 78.48,91.64 137.71,207.58 177.2,347.83l-647.04 116.45c-26.83,-82.53 -71.89,-145.82 -135.69,-189.36 -63.79,-44.05 -144.8,-65.82 -244.03,-65.82 -146.83,0 -264.29,51.14 -351.88,153.41 -87.59,102.27 -131.13,264.29 -131.13,485.54 0,234.92 44.05,403.01 132.65,503.76 88.1,100.75 211.63,151.38 369.6,151.38 74.93,0 146.32,-10.63 214.67,-32.4 67.84,-21.77 145.81,-58.73 233.9,-110.37l0 -203.53 -449.59 0z"/>
   </g>
   <g>
    <path class="fil0" d="M2909.44 5177.01c0,-176.24 -139.06,-236.07 -284.59,-273.26 -82.46,-21.02 -168.16,-33.96 -249.01,-64.68 -33.95,-12.93 -69.52,-32.34 -92.16,-61.44 -35.57,-45.28 -22.64,-142.29 8.08,-190.8 42.04,-63.06 116.42,-87.32 189.19,-87.32 97.01,0 194.03,45.28 263.56,111.57 9.7,9.7 17.79,21.02 30.72,27.49 9.7,4.85 17.79,6.47 25.87,6.47 45.28,0 79.23,-54.98 42.04,-93.79 -90.55,-98.63 -224.75,-166.54 -360.58,-166.54 -95.4,0 -190.8,32.34 -255.48,103.48 -92.16,95.4 -111.56,266.8 -25.87,367.05 27.49,33.96 67.92,59.83 108.34,77.61 124.5,58.22 270.03,58.22 394.54,116.43 33.95,14.55 67.91,38.8 82.46,72.76 17.79,45.27 8.08,101.87 -14.55,143.91 -59.83,101.86 -202.12,143.91 -313.69,143.91 -106.72,0 -229.61,-35.58 -279.73,-139.06 -6.47,-9.7 -8.09,-21.02 -14.56,-30.72 -11.31,-19.41 -29.1,-29.11 -48.5,-29.11 -21.03,0 -42.05,11.32 -51.75,33.96 -4.85,9.7 -6.46,22.63 -3.23,33.95 46.89,169.78 232.84,244.16 394.53,244.16 210.21,0 446.28,-113.18 454.37,-346.03zm619.29 74.38c9.71,-48.5 9.71,-98.63 3.24,-145.52 -11.32,-118.04 -72.76,-253.86 -205.35,-270.03 -1.62,0 -3.24,-3.24 -4.86,-4.85 -14.55,-11.32 -32.33,-14.56 -51.74,-14.56 -176.25,0 -265.18,148.76 -282.96,307.23 -6.47,64.67 -3.24,134.2 17.78,195.65 37.19,103.48 130.98,177.86 242.54,177.86 147.15,0 252.25,-108.34 281.35,-245.78zm-431.72 -69.52c0,-92.17 37.19,-236.08 147.14,-250.63l1.62 1.61c22.64,22.64 63.06,9.71 92.16,22.64 38.81,17.79 61.45,66.3 72.77,106.72 9.7,43.66 14.55,88.93 11.32,134.21 -6.47,95.4 -71.15,185.95 -173.02,185.95 -113.18,0 -151.99,-105.1 -151.99,-200.5zm664.56 242.54c-12.93,-79.23 -21.02,-160.08 -22.64,-240.93 -8.08,-219.9 22.64,-439.81 42.04,-658.1 1.62,-22.63 -17.78,-48.5 -38.8,-53.36 -6.47,-1.61 -11.32,-3.23 -17.79,-3.23 -27.49,0 -53.36,19.4 -56.59,48.51 -16.17,173.01 -37.19,346.03 -42.04,520.66 -4.85,135.82 1.61,271.64 24.25,405.85 4.85,33.96 30.72,48.51 54.98,48.51 32.34,0 64.68,-25.87 56.59,-67.91zm265.18 -674.27c24.26,-30.72 12.94,-76 -24.25,-90.55 -6.47,-1.62 -12.94,-3.23 -21.02,-3.23 -40.42,0 -72.76,38.8 -58.21,80.84 9.7,24.26 30.72,37.19 53.36,37.19 17.79,0 37.19,-8.08 50.12,-24.25zm-14.55 721.16c1.62,-11.32 1.62,-24.25 -3.23,-33.96 -4.85,-12.93 -12.94,-24.25 -16.17,-37.19 -14.55,-59.82 3.23,-313.68 11.32,-375.13 0,-12.93 8.08,-66.29 4.85,-79.23 -8.09,-27.49 -32.34,-45.27 -56.6,-45.27 -25.87,0 -53.36,21.02 -53.36,48.5 -12.93,140.68 -29.1,281.35 -22.63,422.03 1.61,48.51 17.78,142.29 80.85,142.29 24.25,0 46.89,-14.55 54.97,-42.04zm708.23 45.27c30.72,-3.23 53.36,-37.19 45.27,-66.29 -21.02,-80.85 -24.25,-164.93 -25.87,-247.39 -6.47,-219.91 22.64,-438.2 42.04,-658.1 1.62,-22.64 -17.79,-46.89 -38.81,-53.36 -6.46,-1.62 -11.31,-3.24 -17.78,-3.24 -27.49,0 -51.74,19.41 -54.98,48.51 -11.32,116.42 -24.25,232.84 -33.95,349.26 -21.02,-3.23 -40.43,-3.23 -61.45,-3.23 -190.8,0 -431.72,103.48 -467.3,312.07 -6.46,42.04 -4.85,88.93 11.32,129.36 66.3,168.16 299.14,202.12 459.22,202.12 46.89,0 95.4,-3.24 142.29,-9.71zm-336.33 -126.12c-46.89,-11.32 -93.78,-29.1 -129.35,-63.06 -16.17,-12.93 -27.49,-32.34 -33.96,-53.36 -8.09,-32.34 -3.23,-71.14 11.32,-103.48 50.12,-108.34 208.58,-174.63 337.94,-174.63 21.02,0 40.42,1.61 58.21,4.85 -6.47,135.82 -3.23,274.88 14.55,410.7 -85.69,4.85 -174.63,0 -258.71,-21.02l0 0zm1130.25 25.87c-76,-63.06 -143.91,-161.69 -148.76,-263.56 -1.62,-14.55 0,-29.1 -4.85,-43.66 -8.09,-24.25 -30.73,-37.19 -53.36,-37.19 -22.64,0 -45.28,12.94 -53.36,38.81 -27.49,100.25 -93.79,291.05 -221.53,291.05 -11.31,0 -21.02,-1.62 -30.72,-6.47 -27.49,-9.7 -30.72,-58.21 -27.49,-87.31 12.94,-124.51 121.28,-287.82 258.72,-287.82 14.55,0 29.1,1.62 43.65,4.85 50.13,11.32 87.32,-45.27 59.83,-85.7 -17.78,-24.25 -58.21,-33.95 -97.02,-33.95 -158.46,0 -279.73,119.65 -341.17,257.09 -25.87,54.98 -42.04,116.42 -38.81,176.25 4.85,100.25 64.68,174.63 166.55,174.63 129.35,0 213.43,-85.7 270.03,-194.03 35.57,74.38 87.31,143.9 153.61,190.8 9.7,6.46 22.64,8.08 33.95,6.46 50.13,-4.85 69.53,-67.91 30.73,-100.25zm218.29 46.89c1.61,-9.7 -1.62,-21.02 -3.24,-30.72 -16.17,-95.4 -21.02,-190.8 -21.02,-287.81 0,-3.24 3.24,-4.86 3.24,-8.09 4.85,-12.93 6.46,-25.87 12.93,-37.19 22.64,-43.66 105.1,-121.27 158.46,-121.27 6.47,0 12.94,1.62 19.41,4.85 9.7,4.85 19.4,8.09 29.1,8.09 30.72,0 58.21,-27.49 54.98,-63.07 0,-43.65 -58.21,-63.06 -93.79,-63.06 -61.44,0 -129.35,33.96 -177.86,72.77 1.62,-21.02 17.79,-98.64 11.32,-118.04 -8.09,-24.26 -30.72,-37.19 -53.36,-37.19 -19.41,0 -38.81,9.7 -50.13,27.49 -17.78,32.34 -24.25,169.78 -25.87,206.97 -3.23,116.42 -3.23,234.45 9.7,349.26 1.62,22.63 9.7,98.63 21.02,116.42 12.94,17.78 32.34,27.49 50.13,27.49 25.87,0 50.12,-16.17 54.98,-46.9zm467.29 -713.07c24.26,-30.72 12.94,-76 -24.25,-90.55 -6.47,-1.62 -12.94,-3.23 -21.02,-3.23 -40.42,0 -72.76,38.8 -58.21,80.84 9.7,24.26 30.72,37.19 53.36,37.19 17.79,0 37.19,-8.08 50.12,-24.25zm-14.55 721.16c1.62,-11.32 1.62,-24.25 -3.23,-33.96 -4.85,-12.93 -12.94,-24.25 -16.17,-37.19 -14.55,-59.82 3.23,-313.68 11.32,-375.13 0,-12.93 8.08,-66.29 4.85,-79.23 -8.09,-27.49 -32.34,-45.27 -56.6,-45.27 -25.87,0 -53.36,21.02 -53.36,48.5 -12.93,140.68 -29.1,281.35 -22.63,422.03 1.61,48.51 17.78,142.29 80.85,142.29 24.25,0 46.89,-14.55 54.97,-42.04zm536.83 -29.11c9.7,-11.31 12.94,-27.48 12.94,-42.04 -3.24,-32.34 -29.11,-50.12 -56.6,-50.12 -14.55,0 -29.1,4.85 -42.04,16.17 -24.25,21.02 -53.36,30.72 -80.85,30.72 -56.59,0 -114.8,-38.81 -145.52,-98.63 1.62,1.61 0,0 0,-1.62 101.87,-4.85 211.82,-48.51 266.8,-139.06 33.95,-53.36 40.42,-119.65 21.02,-177.86 -22.64,-72.77 -109.96,-113.19 -181.1,-113.19 -74.38,0 -135.83,46.89 -177.87,105.1 -59.82,87.32 -79.23,210.21 -53.36,312.07 37.19,126.13 130.98,226.38 270.03,226.38 59.83,0 119.66,-22.64 166.55,-67.92zm-258.71 -439.81c11.32,-8.08 22.64,-16.17 35.57,-21.02 19.4,-3.23 38.81,-1.61 56.59,4.85 14.56,6.47 32.34,17.79 37.19,33.96 21.02,66.3 -38.8,124.51 -105.1,147.14 -32.34,11.32 -66.29,17.79 -100.25,17.79 1.62,-66.3 25.87,-140.68 76,-182.72zm947.53 514.19c30.72,-3.23 53.36,-37.19 45.27,-66.29 -21.02,-80.85 -24.25,-164.93 -25.87,-247.39 -6.47,-219.91 22.64,-438.2 42.04,-658.1 1.62,-22.64 -17.79,-46.89 -38.81,-53.36 -6.46,-1.62 -11.31,-3.24 -17.78,-3.24 -27.49,0 -51.74,19.41 -54.98,48.51 -11.32,116.42 -24.25,232.84 -33.95,349.26 -21.02,-3.23 -40.43,-3.23 -61.45,-3.23 -190.8,0 -431.72,103.48 -467.3,312.07 -6.46,42.04 -4.85,88.93 11.32,129.36 66.3,168.16 299.14,202.12 459.22,202.12 46.89,0 95.4,-3.24 142.29,-9.71zm-336.33 -126.12c-46.89,-11.32 -93.78,-29.1 -129.35,-63.06 -16.17,-12.93 -27.49,-32.34 -33.96,-53.36 -8.09,-32.34 -3.23,-71.14 11.32,-103.48 50.12,-108.34 208.58,-174.63 337.94,-174.63 21.02,0 40.42,1.61 58.21,4.85 -6.47,135.82 -3.23,274.88 14.55,410.7 -85.69,4.85 -174.63,0 -258.71,-21.02l0 0zm1130.25 25.87c-76,-63.06 -143.91,-161.69 -148.76,-263.56 -1.62,-14.55 0,-29.1 -4.85,-43.66 -8.09,-24.25 -30.73,-37.19 -53.36,-37.19 -22.64,0 -45.28,12.94 -53.36,38.81 -27.49,100.25 -93.79,291.05 -221.53,291.05 -11.31,0 -21.02,-1.62 -30.72,-6.47 -27.49,-9.7 -30.72,-58.21 -27.49,-87.31 12.94,-124.51 121.28,-287.82 258.72,-287.82 14.55,0 29.1,1.62 43.65,4.85 50.13,11.32 87.32,-45.27 59.83,-85.7 -17.78,-24.25 -58.21,-33.95 -97.02,-33.95 -158.46,0 -279.73,119.65 -341.17,257.09 -25.87,54.98 -42.04,116.42 -38.81,176.25 4.85,100.25 64.68,174.63 166.55,174.63 129.35,0 213.43,-85.7 270.03,-194.03 35.57,74.38 87.31,143.9 153.61,190.8 9.7,6.46 22.64,8.08 33.95,6.46 50.13,-4.85 69.53,-67.91 30.73,-100.25zm683.97 100.25c30.72,-3.23 53.36,-37.19 45.27,-66.29 -21.02,-80.85 -24.25,-164.93 -25.87,-247.39 -6.47,-219.91 22.64,-438.2 42.04,-658.1 1.62,-22.64 -17.79,-46.89 -38.81,-53.36 -6.46,-1.62 -11.31,-3.24 -17.78,-3.24 -27.49,0 -51.74,19.41 -54.98,48.51 -11.32,116.42 -24.25,232.84 -33.95,349.26 -21.02,-3.23 -40.43,-3.23 -61.45,-3.23 -190.8,0 -431.72,103.48 -467.3,312.07 -6.46,42.04 -4.85,88.93 11.32,129.36 66.3,168.16 299.14,202.12 459.22,202.12 46.89,0 95.4,-3.24 142.29,-9.71zm-336.33 -126.12c-46.89,-11.32 -93.78,-29.1 -129.35,-63.06 -16.17,-12.93 -27.49,-32.34 -33.96,-53.36 -8.09,-32.34 -3.23,-71.14 11.32,-103.48 50.12,-108.34 208.58,-174.63 337.94,-174.63 21.02,0 40.42,1.61 58.21,4.85 -6.47,135.82 -3.23,274.88 14.55,410.7 -85.69,4.85 -174.63,0 -258.71,-21.02l0 0zm926.51 51.74c9.7,-11.31 12.94,-27.48 12.94,-42.04 -3.24,-32.34 -29.11,-50.12 -56.6,-50.12 -14.55,0 -29.1,4.85 -42.04,16.17 -24.25,21.02 -53.36,30.72 -80.85,30.72 -56.59,0 -114.8,-38.81 -145.52,-98.63 1.62,1.61 0,0 0,-1.62 101.87,-4.85 211.82,-48.51 266.8,-139.06 33.95,-53.36 40.42,-119.65 21.02,-177.86 -22.64,-72.77 -109.96,-113.19 -181.1,-113.19 -74.38,0 -135.83,46.89 -177.87,105.1 -59.82,87.32 -79.23,210.21 -53.36,312.07 37.19,126.13 130.98,226.38 270.03,226.38 59.83,0 119.66,-22.64 166.55,-67.92zm-258.71 -439.81c11.32,-8.08 22.64,-16.17 35.57,-21.02 19.4,-3.23 38.81,-1.61 56.59,4.85 14.56,6.47 32.34,17.79 37.19,33.96 21.02,66.3 -38.8,124.51 -105.1,147.14 -32.34,11.32 -66.29,17.79 -100.25,17.79 1.62,-66.3 25.87,-140.68 76,-182.72zm1384.11 774.52c-12.94,-79.23 -21.02,-160.08 -22.64,-240.92 -6.47,-219.91 24.25,-439.81 42.04,-658.1 3.23,-22.64 -16.17,-48.51 -38.81,-53.36 -33.95,-9.7 -69.53,9.7 -72.76,45.27 -1.62,6.47 -1.62,12.94 -1.62,21.02 0,1.62 -8.08,-1.61 -12.93,-1.61 -24.26,-4.85 -51.75,-6.47 -77.62,-6.47 -179.48,0 -388.06,93.78 -447.89,252.24 -19.4,48.51 -25.87,105.11 -16.17,155.23 37.19,189.18 260.33,234.46 423.64,234.46 29.11,0 59.83,0 88.93,-3.24 1.62,92.17 9.7,184.34 24.26,274.89 4.85,33.95 30.72,48.5 54.97,48.5 32.34,0 64.68,-25.87 56.6,-67.91zm-540.07 -525.51c-1.61,-51.74 22.64,-108.33 59.83,-143.9 71.15,-71.15 192.42,-113.19 292.67,-113.19 27.49,0 54.98,3.23 82.46,11.32 -14.55,134.2 -27.48,268.41 -30.72,402.62 -27.49,1.62 -54.97,3.23 -82.46,3.23 -108.34,0 -312.07,-19.4 -321.78,-160.08zm1245.05 185.95c-42.04,-177.86 -22.63,-365.43 -12.93,-548.14 0,-12.94 -3.24,-24.26 -11.32,-33.96 -11.32,-16.17 -29.11,-24.25 -45.27,-24.25 -25.88,0 -50.13,16.17 -56.6,46.89 -25.87,126.12 -69.53,303.99 -161.69,401 -27.49,29.11 -82.47,59.83 -126.13,59.83 -56.59,0 -77.61,-71.15 -82.46,-118.04 -14.55,-113.18 4.85,-237.69 54.98,-342.79 4.85,-11.32 3.23,-24.26 1.61,-33.96 -8.08,-27.49 -32.34,-43.65 -56.59,-43.65 -14.55,0 -30.72,6.46 -42.04,21.02 -9.7,12.93 -33.96,71.14 -38.81,85.69 -29.1,95.4 -43.65,197.27 -33.95,295.91 9.7,119.65 56.59,247.39 197.26,247.39 122.89,0 218.29,-85.7 276.5,-185.95 4.85,67.91 11.32,137.44 29.11,203.74 4.85,19.4 30.72,37.19 54.97,37.19 33.96,-3.24 61.45,-33.96 53.36,-67.92zm515.81 4.85c9.7,-11.31 12.94,-27.48 12.94,-42.04 -3.24,-32.34 -29.11,-50.12 -56.6,-50.12 -14.55,0 -29.1,4.85 -42.04,16.17 -24.25,21.02 -53.36,30.72 -80.85,30.72 -56.59,0 -114.8,-38.81 -145.52,-98.63 1.62,1.61 0,0 0,-1.62 101.87,-4.85 211.82,-48.51 266.8,-139.06 33.95,-53.36 40.42,-119.65 21.02,-177.86 -22.64,-72.77 -109.96,-113.19 -181.1,-113.19 -74.38,0 -135.83,46.89 -177.87,105.1 -59.82,87.32 -79.23,210.21 -53.36,312.07 37.19,126.13 130.98,226.38 270.03,226.38 59.83,0 119.66,-22.64 166.55,-67.92zm-258.71 -439.81c11.32,-8.08 22.64,-16.17 35.57,-21.02 19.4,-3.23 38.81,-1.61 56.59,4.85 14.56,6.47 32.34,17.79 37.19,33.96 21.02,66.3 -38.8,124.51 -105.1,147.14 -32.34,11.32 -66.29,17.79 -100.25,17.79 1.62,-66.3 25.87,-140.68 76,-182.72zm1102.76 464.07c8.08,-12.94 12.93,-29.11 9.7,-43.66 -4.85,-16.17 -6.47,-33.96 -8.09,-50.12 -4.85,-166.55 1.62,-333.1 6.47,-498.03 3.24,-72.76 6.47,-145.52 9.7,-216.67 3.24,-48.51 6.47,-95.4 17.79,-142.29 58.21,1.62 116.42,3.24 174.63,3.24 33.96,0 67.91,0 101.87,-3.24 16.17,-1.62 38.8,-21.02 43.66,-38.8 9.7,-37.19 -14.56,-74.38 -53.36,-74.38 -33.96,1.61 -66.3,3.23 -98.64,3.23 -69.53,0 -140.67,-3.23 -210.2,-3.23 -103.49,0 -205.35,11.31 -305.6,32.33 -19.41,3.24 -40.43,1.62 -58.21,11.32 -45.28,27.49 -32.34,100.25 21.02,105.1 4.85,0 8.08,0 12.93,0 29.11,0 59.83,-8.08 88.93,-14.55 54.98,-9.7 109.96,-16.17 166.55,-19.4 -8.09,46.89 -12.94,93.78 -14.55,140.67 -4.85,93.79 -8.09,187.57 -11.32,282.97 -4.85,130.97 -8.09,261.95 -4.85,394.54 0,17.78 3.23,95.4 8.08,111.57 9.7,27.48 35.57,43.65 58.21,43.65 17.79,0 33.96,-8.08 45.28,-24.25zm540.06 -3.24c1.61,-9.7 -1.62,-21.02 -3.24,-30.72 -16.17,-95.4 -21.02,-190.8 -21.02,-287.81 0,-3.24 3.24,-4.86 3.24,-8.09 4.85,-12.93 6.46,-25.87 12.93,-37.19 22.64,-43.66 105.1,-121.27 158.46,-121.27 6.47,0 12.94,1.62 19.41,4.85 9.7,4.85 19.4,8.09 29.1,8.09 30.72,0 58.21,-27.49 54.98,-63.07 0,-43.65 -58.21,-63.06 -93.79,-63.06 -61.44,0 -129.35,33.96 -177.86,72.77 1.62,-21.02 17.79,-98.64 11.32,-118.04 -8.09,-24.26 -30.72,-37.19 -53.36,-37.19 -19.41,0 -38.81,9.7 -50.13,27.49 -17.78,32.34 -24.25,169.78 -25.87,206.97 -3.23,116.42 -3.23,234.45 9.7,349.26 1.62,22.63 9.7,98.63 21.02,116.42 12.94,17.78 32.34,27.49 50.13,27.49 25.87,0 50.12,-16.17 54.98,-46.9zm887.7 -46.89c-76,-63.06 -143.91,-161.69 -148.76,-263.56 -1.62,-14.55 0,-29.1 -4.85,-43.66 -8.09,-24.25 -30.73,-37.19 -53.36,-37.19 -22.64,0 -45.28,12.94 -53.36,38.81 -27.49,100.25 -93.79,291.05 -221.53,291.05 -11.31,0 -21.02,-1.62 -30.72,-6.47 -27.49,-9.7 -30.72,-58.21 -27.49,-87.31 12.94,-124.51 121.28,-287.82 258.72,-287.82 14.55,0 29.1,1.62 43.65,4.85 50.13,11.32 87.32,-45.27 59.83,-85.7 -17.78,-24.25 -58.21,-33.95 -97.02,-33.95 -158.46,0 -279.73,119.65 -341.17,257.09 -25.87,54.98 -42.04,116.42 -38.81,176.25 4.85,100.25 64.68,174.63 166.55,174.63 129.35,0 213.43,-85.7 270.03,-194.03 35.57,74.38 87.31,143.9 153.61,190.8 9.7,6.46 22.64,8.08 33.95,6.46 50.13,-4.85 69.53,-67.91 30.73,-100.25zm637.08 19.41c-4.86,-124.51 9.7,-249.01 9.7,-373.52 1.61,-59.83 -16.17,-124.5 -53.36,-173.01 -35.58,-40.43 -74.38,-61.45 -127.74,-61.45 -14.55,0 -29.11,1.62 -43.66,4.85 -98.63,25.88 -177.86,111.57 -226.37,197.27 4.85,-56.59 14.55,-113.18 21.02,-171.39 4.85,-37.19 -22.64,-66.3 -54.98,-66.3 -27.49,0 -50.12,21.02 -56.59,46.89 -9.7,90.55 -25.87,179.48 -29.11,268.42 -3.23,101.86 8.09,202.11 24.26,302.37 1.61,12.93 0,27.48 4.85,40.42 11.32,22.64 30.72,42.04 56.59,42.04 22.64,0 45.28,-14.55 53.36,-37.19 6.47,-17.79 -1.62,-38.81 -1.62,-56.59 -3.23,-140.68 45.28,-294.29 140.68,-396.16 29.1,-30.72 71.14,-61.44 113.19,-61.44 51.74,0 66.29,82.46 66.29,121.27 0,101.87 -9.7,203.74 -11.32,307.22 0,16.17 0,74.38 6.47,88.93 11.32,24.26 32.34,33.96 53.36,33.96 29.1,0 56.59,-19.4 54.98,-56.59zm467.29 40.42c108.34,-63.06 122.89,-212.9 29.11,-295.09 -25.87,-21.02 -54.98,-37.19 -84.08,-50.13 -43.66,-21.02 -182.72,-64.41 -203.74,-108.06 -8.08,-15.9 -3.23,-51.48 8.09,-66.03 27.48,-32.34 74.38,-43.39 113.18,-43.39 21.02,0 42.04,3.24 63.06,6.47 12.94,3.23 24.26,9.43 37.19,9.43 42.04,0 69.53,-43.39 51.75,-80.58 -4.86,-11.32 -12.94,-21.02 -24.26,-25.87 -35.57,-16.17 -85.7,-22.63 -126.12,-22.63 -82.47,0 -169.78,30.72 -215.06,103.48 -30.72,53.09 -33.95,130.43 -3.23,182.18 27.49,43.38 76,72.49 121.27,93.51 58.21,27.22 121.27,41.77 174.63,77.34 12.94,8.09 24.26,19.41 30.72,32.34 11.32,20.75 3.24,61.18 -14.55,77.35 -22.63,22.36 -59.82,30.45 -100.25,30.45 -51.74,0 -109.95,-12.67 -147.14,-28.84 -16.17,-8.08 -33.96,-16.17 -50.13,-12.93 -53.36,8.08 -64.67,80.58 -17.78,104.83 61.44,32.34 134.2,50.13 205.35,50.13 51.74,0 106.72,-8.09 151.99,-33.96zm360.58 50.13c9.7,-12.94 12.94,-29.11 9.7,-43.66 -9.7,-32.34 -12.93,-66.3 -17.78,-98.64 -12.94,-113.18 -21.02,-227.99 -21.02,-341.17 14.55,-1.62 109.95,-8.09 124.5,-9.7 11.32,0 22.64,-8.09 30.72,-14.56 32.34,-33.95 14.56,-88.93 -30.72,-97.01 -3.23,0 -6.47,0 -11.32,0 -29.1,0 -95.4,6.46 -111.57,8.08 4.86,-56.59 29.11,-350.88 95.4,-360.58 9.71,-1.62 19.41,-1.62 29.11,-1.62 12.94,1.62 27.49,6.47 40.42,3.24 59.83,-16.17 58.21,-101.87 -3.23,-111.57 -16.17,-3.24 -33.96,-4.85 -50.13,-4.85 -93.78,0 -145.52,63.06 -171.39,145.52 -32.34,109.96 -46.89,223.14 -53.36,336.33 -42.04,-9.7 -80.85,27.49 -69.53,69.53 9.7,30.72 37.19,42.04 67.91,45.27 0,69.53 14.55,405.86 43.66,464.07 11.32,22.63 32.34,35.57 53.36,35.57 16.17,0 33.95,-8.08 45.27,-24.25zm764.82 -274.89c9.71,-48.5 9.71,-98.63 3.24,-145.52 -11.32,-118.04 -72.76,-253.86 -205.35,-270.03 -1.62,0 -3.24,-3.24 -4.86,-4.85 -14.55,-11.32 -32.33,-14.56 -51.74,-14.56 -176.25,0 -265.18,148.76 -282.96,307.23 -6.47,64.67 -3.24,134.2 17.78,195.65 37.19,103.48 130.98,177.86 242.54,177.86 147.15,0 252.25,-108.34 281.35,-245.78zm-431.72 -69.52c0,-92.17 37.19,-236.08 147.14,-250.63l1.62 1.61c22.64,22.64 63.06,9.71 92.16,22.64 38.81,17.79 61.45,66.3 72.77,106.72 9.7,43.66 14.55,88.93 11.32,134.21 -6.47,95.4 -71.15,185.95 -173.02,185.95 -113.18,0 -151.99,-105.1 -151.99,-200.5zm651.63 281.34c1.61,-9.7 -1.62,-21.02 -3.24,-30.72 -16.17,-95.4 -21.02,-190.8 -21.02,-287.81 0,-3.24 3.24,-4.86 3.24,-8.09 4.85,-12.93 6.46,-25.87 12.93,-37.19 22.64,-43.66 105.1,-121.27 158.46,-121.27 6.47,0 12.94,1.62 19.41,4.85 9.7,4.85 19.4,8.09 29.1,8.09 30.72,0 58.21,-27.49 54.98,-63.07 0,-43.65 -58.21,-63.06 -93.79,-63.06 -61.44,0 -129.35,33.96 -177.86,72.77 1.62,-21.02 17.79,-98.64 11.32,-118.04 -8.09,-24.26 -30.72,-37.19 -53.36,-37.19 -19.41,0 -38.81,9.7 -50.13,27.49 -17.78,32.34 -24.25,169.78 -25.87,206.97 -3.23,116.42 -3.23,234.45 9.7,349.26 1.62,22.63 9.7,98.63 21.02,116.42 12.94,17.78 32.34,27.49 50.13,27.49 25.87,0 50.12,-16.17 54.98,-46.9zm793.92 -6.46c1.61,-16.17 -1.62,-33.96 0,-50.13 3.23,-119.65 17.78,-244.16 66.29,-355.73 19.41,-45.27 58.21,-106.72 105.1,-106.72 48.51,0 66.3,76 66.3,113.19 0,118.04 -14.55,237.69 -11.32,357.35 1.62,14.55 -1.62,32.34 4.85,46.89 11.32,24.25 32.34,33.95 53.36,33.95 29.11,0 58.21,-19.4 56.59,-56.59 -4.85,-127.74 9.71,-255.48 9.71,-381.6 0,-100.25 -59.83,-226.37 -173.02,-226.37 -88.93,0 -147.14,54.97 -190.8,124.5 -25.87,-66.29 -82.46,-118.04 -155.22,-118.04 -67.92,0 -135.83,40.43 -179.49,101.87 1.62,-11.32 11.32,-79.23 11.32,-92.16 0,-37.19 -29.1,-56.6 -58.21,-56.6 -24.25,0 -50.12,16.17 -54.97,48.51 -9.71,90.55 -25.88,179.48 -29.11,268.42 -3.23,100.25 8.09,200.5 24.25,300.75 1.62,12.93 0,29.1 4.86,42.04 11.31,22.64 30.72,42.04 56.59,42.04 22.64,0 45.27,-14.55 53.36,-37.19 6.47,-19.4 -1.62,-42.04 -1.62,-61.44 -4.85,-111.57 8.09,-227.99 51.74,-331.48 16.17,-33.96 35.58,-66.29 64.68,-88.93 12.94,-11.32 37.19,-21.02 56.6,-21.02 48.5,0 64.67,84.08 64.67,119.65 0,54.98 -17.78,331.48 -8.08,386.45 4.85,29.11 29.1,45.28 54.97,45.28 27.49,0 53.36,-19.41 56.6,-46.89zm1072.04 -40.43c-76,-63.06 -143.91,-161.69 -148.76,-263.56 -1.62,-14.55 0,-29.1 -4.85,-43.66 -8.09,-24.25 -30.73,-37.19 -53.36,-37.19 -22.64,0 -45.28,12.94 -53.36,38.81 -27.49,100.25 -93.79,291.05 -221.53,291.05 -11.31,0 -21.02,-1.62 -30.72,-6.47 -27.49,-9.7 -30.72,-58.21 -27.49,-87.31 12.94,-124.51 121.28,-287.82 258.72,-287.82 14.55,0 29.1,1.62 43.65,4.85 50.13,11.32 87.32,-45.27 59.83,-85.7 -17.78,-24.25 -58.21,-33.95 -97.02,-33.95 -158.46,0 -279.73,119.65 -341.17,257.09 -25.87,54.98 -42.04,116.42 -38.81,176.25 4.85,100.25 64.68,174.63 166.55,174.63 129.35,0 213.43,-85.7 270.03,-194.03 35.57,74.38 87.31,143.9 153.61,190.8 9.7,6.46 22.64,8.08 33.95,6.46 50.13,-4.85 69.53,-67.91 30.73,-100.25zm1081.74 -205.35c67.91,-249.01 93.78,-507.72 142.29,-759.97 6.47,-27.48 -11.32,-56.59 -37.19,-64.67 -6.47,-1.62 -11.32,-1.62 -17.79,-1.62 -24.25,0 -46.89,12.93 -53.35,37.19 -17.79,67.91 -79.24,462.45 -92.17,531.98 -19.4,109.95 -63.06,329.85 -129.36,423.64 -8.08,12.93 -29.1,35.57 -45.27,35.57 -14.55,0 -30.72,-9.7 -40.43,-19.4 -135.82,-150.38 -194.03,-742.18 -206.96,-957.24 0,-32.34 -25.88,-58.21 -58.22,-58.21 -29.1,0 -56.59,22.64 -54.97,58.21 12.93,224.76 72.76,905.49 260.33,1055.87 29.1,22.64 63.06,33.96 97.01,33.96 143.91,0 206.97,-202.12 236.08,-315.31z"/>
    <path class="fil0" d="M19867.99 4750.14c24.26,-30.72 12.94,-76 -24.25,-90.55 -6.47,-1.62 -12.94,-3.23 -21.02,-3.23 -40.42,0 -72.76,38.8 -58.21,80.84 9.7,24.26 30.72,37.19 53.36,37.19 17.79,0 37.19,-8.08 50.12,-24.25zm-14.55 721.16c1.62,-11.32 1.62,-24.25 -3.23,-33.96 -4.85,-12.93 -12.94,-24.25 -16.17,-37.19 -14.55,-59.82 3.23,-313.68 11.32,-375.13 0,-12.93 8.08,-66.29 4.85,-79.23 -8.09,-27.49 -32.34,-45.27 -56.6,-45.27 -25.87,0 -53.36,21.02 -53.36,48.5 -12.93,140.68 -29.1,281.35 -22.63,422.03 1.61,48.51 17.78,142.29 80.85,142.29 24.25,0 46.89,-14.55 54.97,-42.04zm708.23 45.27c30.72,-3.23 53.36,-37.19 45.27,-66.29 -21.02,-80.85 -24.25,-164.93 -25.87,-247.39 -6.47,-219.91 22.64,-438.2 42.04,-658.1 1.62,-22.64 -17.79,-46.89 -38.81,-53.36 -6.46,-1.62 -11.31,-3.24 -17.78,-3.24 -27.49,0 -51.74,19.41 -54.98,48.51 -11.32,116.42 -24.25,232.84 -33.95,349.26 -21.02,-3.23 -40.43,-3.23 -61.45,-3.23 -190.8,0 -431.72,103.48 -467.3,312.07 -6.46,42.04 -4.85,88.93 11.32,129.36 66.3,168.16 299.14,202.12 459.22,202.12 46.89,0 95.4,-3.24 142.29,-9.71zm-336.33 -126.12c-46.89,-11.32 -93.78,-29.1 -129.35,-63.06 -16.17,-12.93 -27.49,-32.34 -33.96,-53.36 -8.09,-32.34 -3.23,-71.14 11.32,-103.48 50.12,-108.34 208.58,-174.63 337.94,-174.63 21.02,0 40.42,1.61 58.21,4.85 -6.47,135.82 -3.23,274.88 14.55,410.7 -85.69,4.85 -174.63,0 -258.71,-21.02l0 0zm1130.25 25.87c-76,-63.06 -143.91,-161.69 -148.76,-263.56 -1.62,-14.55 0,-29.1 -4.85,-43.66 -8.09,-24.25 -30.73,-37.19 -53.36,-37.19 -22.64,0 -45.28,12.94 -53.36,38.81 -27.49,100.25 -93.79,291.05 -221.53,291.05 -11.31,0 -21.02,-1.62 -30.72,-6.47 -27.49,-9.7 -30.72,-58.21 -27.49,-87.31 12.94,-124.51 121.28,-287.82 258.72,-287.82 14.55,0 29.1,1.62 43.65,4.85 50.13,11.32 87.32,-45.27 59.83,-85.7 -17.78,-24.25 -58.21,-33.95 -97.02,-33.95 -158.46,0 -279.73,119.65 -341.17,257.09 -25.87,54.98 -42.04,116.42 -38.81,176.25 4.85,100.25 64.68,174.63 166.55,174.63 129.35,0 213.43,-85.7 270.03,-194.03 35.57,74.38 87.31,143.9 153.61,190.8 9.7,6.46 22.64,8.08 33.95,6.46 50.13,-4.85 69.53,-67.91 30.73,-100.25zm452.74 59.83c108.34,-63.06 122.89,-212.9 29.11,-295.09 -25.87,-21.02 -54.98,-37.19 -84.08,-50.13 -43.66,-21.02 -182.72,-64.41 -203.74,-108.06 -8.08,-15.9 -3.23,-51.48 8.09,-66.03 27.48,-32.34 74.38,-43.39 113.18,-43.39 21.02,0 42.04,3.24 63.06,6.47 12.94,3.23 24.26,9.43 37.19,9.43 42.04,0 69.53,-43.39 51.75,-80.58 -4.86,-11.32 -12.94,-21.02 -24.26,-25.87 -35.57,-16.17 -85.7,-22.63 -126.12,-22.63 -82.47,0 -169.78,30.72 -215.06,103.48 -30.72,53.09 -33.95,130.43 -3.23,182.18 27.49,43.38 76,72.49 121.27,93.51 58.21,27.22 121.27,41.77 174.63,77.34 12.94,8.09 24.26,19.41 30.72,32.34 11.32,20.75 3.24,61.18 -14.55,77.35 -22.63,22.36 -59.82,30.45 -100.25,30.45 -51.74,0 -109.95,-12.67 -147.14,-28.84 -16.17,-8.08 -33.96,-16.17 -50.13,-12.93 -53.36,8.08 -64.67,80.58 -17.78,104.83 61.44,32.34 134.2,50.13 205.35,50.13 51.74,0 106.72,-8.09 151.99,-33.96z"/>
   </g>
  </g>
 </g>
</svg>
